# xmcd
#
# Track frame offsets: 
#        150
#        14394
#        33612
#        58148
#        81000
#        99587
#        117537
#        138000
#        156502
#        179125
#        191555
#        209150
#
# Disc length: 2980 seconds
#
# Revision: 0
# Processed by: cddbd v1.5.1PL2 Copyright (c) Steve Scherf et al.
# Submitted via: ExactAudioCopy v0.95a5
#
DISCID=b40ba20c
DTITLE=Various Artist - Valores da Nossa Terra
DYEAR=1900
DGENRE=Gaucha
TTITLE0=Adeus Solidão - Fabio Vargas
TTITLE1=Sobra Cavalo - José Claudio Machado
TTITLE2=Firme nos Bastos - Luiz Marenco
TTITLE3=Milonga Abaixo de Mau Tempo - José Claudio Machado
TTITLE4=Cismas - Neto fagundes
TTITLE5=Canção do Verde - José Claudio Machado
TTITLE6=Restos do Interior - Paulo Gaiger
TTITLE7=Lástima - José Claudio Machado
TTITLE8=A Troco de Nada - Chico Saratt
TTITLE9=Sonho Louco - Grupo Tche Guri
TTITLE10=Caminhos - Elton Saldanha
TTITLE11=Assim no Más - João de Almeida Neto
EXTD=
EXTT0=
EXTT1=
EXTT2=
EXTT3=
EXTT4=
EXTT5=
EXTT6=
EXTT7=
EXTT8=
EXTT9=
EXTT10=
EXTT11=
PLAYORDER=
